<svg width="20" height="20" viewBox="0 0 20 20" fill="none" xmlns="http://www.w3.org/2000/svg">
<path fill-rule="evenodd" clip-rule="evenodd" d="M14.8655 3.33325H5.13451C4.69523 3.33324 4.31624 3.33323 4.0041 3.35873C3.67465 3.38565 3.34696 3.44508 3.03165 3.60574C2.56124 3.84542 2.17879 4.22788 1.93911 4.69828C1.77845 5.0136 1.71902 5.34128 1.6921 5.67074C1.6666 5.98287 1.66661 6.36183 1.66663 6.8011L1.66664 13.1987C1.66663 13.638 1.66662 14.017 1.69212 14.3291C1.71904 14.6586 1.77847 14.9863 1.93913 15.3016C2.17882 15.772 2.56127 16.1544 3.03167 16.3941C3.34699 16.5548 3.67467 16.6142 4.00412 16.6411C4.31625 16.6666 4.69519 16.6666 5.13444 16.6666H14.8654C15.3047 16.6666 15.6837 16.6666 15.9959 16.6411C16.3253 16.6142 16.653 16.5548 16.9683 16.3941C17.4387 16.1544 17.8212 15.772 18.0609 15.3016C18.2215 14.9862 18.2809 14.6586 18.3079 14.3291C18.3334 14.017 18.3334 13.638 18.3333 13.1987V6.80112C18.3334 6.36183 18.3334 5.98287 18.3079 5.67073C18.2809 5.34128 18.2215 5.01359 18.0609 4.69828C17.8212 4.22787 17.4387 3.84542 16.9683 3.60574C16.653 3.44508 16.3253 3.38565 15.9959 3.35873C15.6837 3.33323 15.3047 3.33324 14.8655 3.33325ZM3.7883 5.09075C3.8295 5.06975 3.91344 5.03836 4.13982 5.01986C4.37594 5.00057 4.68617 4.99992 5.16663 4.99992H14.8333C15.3138 4.99992 15.624 5.00057 15.8601 5.01986C16.0865 5.03836 16.1705 5.06975 16.2117 5.09075C16.3685 5.17064 16.496 5.29813 16.5758 5.45493C16.5968 5.49613 16.6282 5.58006 16.6467 5.80645C16.666 6.04257 16.6667 6.35279 16.6667 6.83325V6.89929L10.2635 9.03367C10.0925 9.09069 9.90755 9.09069 9.73649 9.03367L3.3333 6.89927L3.3333 6.83326C3.33329 6.3528 3.33394 6.04257 3.35323 5.80645C3.37173 5.58007 3.40313 5.49613 3.42412 5.45493C3.50401 5.29813 3.6315 5.17064 3.7883 5.09075ZM3.3333 8.65609L3.33331 13.1666C3.33331 13.6471 3.33396 13.9573 3.35325 14.1934C3.37175 14.4198 3.40315 14.5037 3.42414 14.5449C3.50404 14.7017 3.63152 14.8292 3.78832 14.9091C3.82953 14.9301 3.91346 14.9615 4.13984 14.98C4.37596 14.9993 4.68619 14.9999 5.16665 14.9999H14.8333C15.3138 14.9999 15.624 14.9993 15.8601 14.98C16.0865 14.9615 16.1705 14.9301 16.2117 14.9091C16.3685 14.8292 16.496 14.7017 16.5758 14.5449C16.5968 14.5037 16.6282 14.4198 16.6467 14.1934C16.666 13.9573 16.6667 13.647 16.6667 13.1666V8.65611L10.7906 10.6148C10.2774 10.7859 9.72261 10.7859 9.20945 10.6148L3.3333 8.65609Z" fill="#EEEEEE"/>
</svg>
