<svg width="24" height="24" viewBox="0 0 24 24" fill="none" xmlns="http://www.w3.org/2000/svg">
<path fill-rule="evenodd" clip-rule="evenodd" d="M14.1736 16.1545C12.7319 15.9485 11.2681 15.9485 9.82637 16.1545L8.81906 16.2984C7.2015 16.5295 5.99999 18.081 5.99999 19.715C5.99999 19.8724 6.1276 20 6.28501 20H17.715C17.8724 20 18 19.8724 18 19.715C18 18.081 16.7985 16.5295 15.1809 16.2984L14.1736 16.1545ZM9.54353 14.1746C11.1729 13.9418 12.8271 13.9418 14.4565 14.1746L15.4638 14.3185C18.0666 14.6903 20 17.0857 20 19.715C20 20.977 18.9769 22 17.715 22H6.28501C5.02303 22 3.99999 20.977 3.99999 19.715C3.99999 17.0857 5.93336 14.6903 8.53622 14.3185L9.54353 14.1746Z" fill="#EEEEEE"/>
<path fill-rule="evenodd" clip-rule="evenodd" d="M12 10C13.6569 10 15 8.65685 15 7C15 5.34315 13.6569 4 12 4C10.3431 4 9 5.34315 9 7C9 8.65685 10.3431 10 12 10ZM12 12C14.7614 12 17 9.76142 17 7C17 4.23858 14.7614 2 12 2C9.23858 2 7 4.23858 7 7C7 9.76142 9.23858 12 12 12Z" fill="#EEEEEE"/>
<path d="M5.0381 7.73477C5.09024 8.23456 5.19496 8.7187 5.34664 9.18158C3.93442 8.88116 2.87505 7.62679 2.87505 6.125C2.87505 4.39911 4.27416 3 6.00005 3C6.08349 3 6.16616 3.00327 6.24794 3.00969C5.9673 3.41347 5.72809 3.84821 5.53646 4.30775C4.72514 4.5141 4.12505 5.24947 4.12505 6.125C4.12505 6.80887 4.49117 7.40723 5.0381 7.73477Z" fill="#EEEEEE"/>
<path d="M5.93658 10.5002C6.20702 10.9677 6.52996 11.4009 6.89735 11.792C6.1464 11.7215 5.38922 11.7397 4.64149 11.8465L4.01192 11.9365C3.00094 12.0809 2.25 13.0506 2.25 14.0719C2.25 14.1702 2.32976 14.25 2.42814 14.25H4.35165C3.95673 14.6272 3.60399 15.0472 3.29934 15.5H2.42814C1.6394 15.5 1 14.8606 1 14.0719C1 12.4286 2.20836 10.9314 3.83514 10.699L4.46471 10.6091C4.95291 10.5394 5.44467 10.5031 5.93658 10.5002Z" fill="#EEEEEE"/>
<path d="M20.7007 15.5H21.5719C22.3606 15.5 23 14.8606 23 14.0719C23 12.4286 21.7917 10.9314 20.1649 10.699L19.5353 10.6091C19.0471 10.5394 18.5553 10.5031 18.0634 10.5002C17.793 10.9677 17.47 11.4009 17.1026 11.792C17.8536 11.7215 18.6108 11.7397 19.3585 11.8465L19.9881 11.9365C20.9991 12.0809 21.75 13.0506 21.75 14.0719C21.75 14.1702 21.6702 14.25 21.5719 14.25H19.6484C20.0433 14.6272 20.396 15.0472 20.7007 15.5Z" fill="#EEEEEE"/>
<path d="M18.6534 9.1816C20.0656 8.88122 21.125 7.62683 21.125 6.125C21.125 4.39911 19.7259 3 18 3C17.9166 3 17.8339 3.00327 17.7521 3.0097C18.0327 3.41347 18.2719 3.84819 18.4635 4.30772C19.2749 4.51403 19.875 5.24943 19.875 6.125C19.875 6.80892 19.5089 7.40731 18.9619 7.73483C18.9098 8.2346 18.805 8.71874 18.6534 9.1816Z" fill="#EEEEEE"/>
</svg>
