<svg width="20" height="20" viewBox="0 0 20 20" fill="none" xmlns="http://www.w3.org/2000/svg">
<path fill-rule="evenodd" clip-rule="evenodd" d="M15.0326 5.67831C15.2771 5.47471 15.5924 5.37652 15.9092 5.40532C16.226 5.43413 16.5185 5.58756 16.7222 5.83191L19.2218 8.83191C19.4165 9.07731 19.5075 9.38914 19.4754 9.70076C19.4433 10.0124 19.2906 10.2991 19.05 10.4996C18.8093 10.7002 18.4998 10.7987 18.1875 10.7741C17.8752 10.7495 17.5849 10.6037 17.3786 10.3679L14.879 7.36791C14.6754 7.12345 14.5772 6.80814 14.606 6.49131C14.6348 6.17448 14.7882 5.88205 15.0326 5.67831Z" fill="white"/>
<path fill-rule="evenodd" clip-rule="evenodd" d="M15.0326 13.5217C14.788 13.3181 14.6344 13.0257 14.6054 12.7089C14.5763 12.3921 14.6743 12.0767 14.8778 11.8321L17.3786 8.83205C17.478 8.70671 17.6015 8.60252 17.7419 8.52561C17.8822 8.44871 18.0365 8.40065 18.1956 8.38425C18.3548 8.36785 18.5156 8.38345 18.6687 8.43013C18.8217 8.47681 18.9639 8.55363 19.0868 8.65606C19.2097 8.7585 19.3109 8.88449 19.3845 9.02661C19.458 9.16873 19.5023 9.32412 19.5149 9.48364C19.5275 9.64315 19.508 9.80357 19.4577 9.95546C19.4073 10.1073 19.3271 10.2476 19.2218 10.3681L16.7222 13.3681C16.5184 13.6124 16.226 13.7658 15.9092 13.7946C15.5923 13.8234 15.277 13.7253 15.0326 13.5217Z" fill="white"/>
<path fill-rule="evenodd" clip-rule="evenodd" d="M18.0001 9.6C18.0001 9.91826 17.8737 10.2235 17.6486 10.4485C17.4236 10.6736 17.1184 10.8 16.8001 10.8H9.0001C8.68184 10.8 8.37661 10.6736 8.15157 10.4485C7.92653 10.2235 7.8001 9.91826 7.8001 9.6C7.8001 9.28174 7.92653 8.97652 8.15157 8.75147C8.37661 8.52643 8.68184 8.4 9.0001 8.4H16.8001C17.1184 8.4 17.4236 8.52643 17.6486 8.75147C17.8737 8.97652 18.0001 9.28174 18.0001 9.6ZM0.600098 1.2C0.600098 0.88174 0.726526 0.576515 0.951569 0.351472C1.17661 0.126428 1.48184 0 1.8001 0H12.6001C12.9184 0 13.2236 0.126428 13.4486 0.351472C13.6737 0.576515 13.8001 0.88174 13.8001 1.2C13.8001 1.51826 13.6737 1.82348 13.4486 2.04853C13.2236 2.27357 12.9184 2.4 12.6001 2.4H1.8001C1.48184 2.4 1.17661 2.27357 0.951569 2.04853C0.726526 1.82348 0.600098 1.51826 0.600098 1.2ZM0.600098 18C0.600098 17.6817 0.726526 17.3765 0.951569 17.1515C1.17661 16.9264 1.48184 16.8 1.8001 16.8H12.6001C12.9184 16.8 13.2236 16.9264 13.4486 17.1515C13.6737 17.3765 13.8001 17.6817 13.8001 18C13.8001 18.3183 13.6737 18.6235 13.4486 18.8485C13.2236 19.0736 12.9184 19.2 12.6001 19.2H1.8001C1.48184 19.2 1.17661 19.0736 0.951569 18.8485C0.726526 18.6235 0.600098 18.3183 0.600098 18Z" fill="white"/>
<path fill-rule="evenodd" clip-rule="evenodd" d="M12.6001 0C12.9184 0 13.2236 0.126428 13.4486 0.351472C13.6737 0.576515 13.8001 0.88174 13.8001 1.2V6C13.8001 6.31826 13.6737 6.62348 13.4486 6.84853C13.2236 7.07357 12.9184 7.2 12.6001 7.2C12.2818 7.2 11.9766 7.07357 11.7516 6.84853C11.5265 6.62348 11.4001 6.31826 11.4001 6V1.2C11.4001 0.88174 11.5265 0.576515 11.7516 0.351472C11.9766 0.126428 12.2818 0 12.6001 0ZM12.6001 12C12.9184 12 13.2236 12.1264 13.4486 12.3515C13.6737 12.5765 13.8001 12.8817 13.8001 13.2V18C13.8001 18.3183 13.6737 18.6235 13.4486 18.8485C13.2236 19.0736 12.9184 19.2 12.6001 19.2C12.2818 19.2 11.9766 19.0736 11.7516 18.8485C11.5265 18.6235 11.4001 18.3183 11.4001 18V13.2C11.4001 12.8817 11.5265 12.5765 11.7516 12.3515C11.9766 12.1264 12.2818 12 12.6001 12ZM1.8001 0C2.11836 0 2.42358 0.126428 2.64863 0.351472C2.87367 0.576515 3.0001 0.88174 3.0001 1.2V18C3.0001 18.3183 2.87367 18.6235 2.64863 18.8485C2.42358 19.0736 2.11836 19.2 1.8001 19.2C1.48184 19.2 1.17661 19.0736 0.951569 18.8485C0.726526 18.6235 0.600098 18.3183 0.600098 18V1.2C0.600098 0.88174 0.726526 0.576515 0.951569 0.351472C1.17661 0.126428 1.48184 0 1.8001 0Z" fill="white"/>
</svg>
