<svg width="24" height="24" viewBox="0 0 24 24" fill="none" xmlns="http://www.w3.org/2000/svg">
<path d="M7.46794 6.27642L3.55187 10.9757C3.24821 11.3401 3.09638 11.5223 3.03836 11.7257C2.98721 11.905 2.98721 12.095 3.03836 12.2743C3.09638 12.4777 3.24821 12.6599 3.55187 13.0243L7.46794 17.7236C7.6139 17.8987 7.83011 18 8.05811 18C8.70943 18 9.06524 17.2403 8.64827 16.74L5.53162 13H15.9983C16.5506 13 16.9983 12.5523 16.9983 12C16.9983 11.4477 16.5506 11 15.9983 11H5.53162L8.64827 7.26002C9.06524 6.75966 8.70943 6 8.05811 6C7.83011 6 7.6139 6.10127 7.46794 6.27642Z" fill="#EEEEEE"/>
<path fill-rule="evenodd" clip-rule="evenodd" d="M14 4C14 3.44772 14.4477 3 15 3H17C19.2091 3 21 4.79086 21 7V17C21 19.2091 19.2091 21 17 21H15C14.4477 21 14 20.5523 14 20C14 19.4477 14.4477 19 15 19H17C18.1046 19 19 18.1046 19 17V7C19 5.89543 18.1046 5 17 5H15C14.4477 5 14 4.55228 14 4Z" fill="#EEEEEE"/>
</svg>
