<svg width="45" height="45" viewBox="0 0 45 45" fill="none"
     xmlns="http://www.w3.org/2000/svg">
    <rect width="45" height="45" rx="11" fill="#343543"/>
    <g clip-path="url(#clip0_108_423)">
        <path fill-rule="evenodd" clip-rule="evenodd"
              d="M32.2068 12.7642C31.4808 12.8943 30.4895 13.2231 29.0445 13.7059L17.9327 17.4092C16.5237 17.8784 15.5015 18.2191 14.7567 18.5101C13.9828 18.8115 13.6438 19.0118 13.5017 19.1471C13.2521 19.3867 13.0535 19.6744 12.9178 19.9927C12.7822 20.3111 12.7122 20.6535 12.7122 20.9996C12.7122 21.3456 12.7822 21.6881 12.9178 22.0065C13.0535 22.3248 13.2521 22.6124 13.5017 22.8521C13.6438 22.9891 13.9828 23.1877 14.7567 23.489C15.8285 23.8876 16.9092 24.2621 17.9978 24.6122C18.4977 24.7783 18.8436 24.893 19.1569 25.059C19.9158 25.4611 20.5362 26.0821 20.9375 26.8414C21.1053 27.1547 21.22 27.5005 21.3861 28.0005L21.4084 28.0673C21.8775 29.4746 22.2182 30.4985 22.5093 31.2416C22.8106 32.0154 23.0109 32.3544 23.1479 32.4965C23.3875 32.7459 23.6751 32.9443 23.9933 33.0798C24.3114 33.2153 24.6537 33.2852 24.9996 33.2852C25.3454 33.2852 25.6877 33.2153 26.0059 33.0798C26.324 32.9443 26.6116 32.7459 26.8512 32.4965C26.9882 32.3544 27.1868 32.0154 27.4881 31.2416C27.7792 30.4985 28.1216 29.4746 28.589 28.0673L32.2941 16.9538C32.7752 15.5088 33.1039 14.5157 33.2323 13.7915C33.3625 13.0587 33.2341 12.8926 33.169 12.8293C33.1056 12.7642 32.9396 12.6341 32.2068 12.7642ZM31.9072 11.0812C32.7803 10.9271 33.6963 10.9357 34.3812 11.6188C35.0643 12.3037 35.0729 13.2197 34.9188 14.0928C34.7647 14.9575 34.3949 16.0686 33.9429 17.4264L33.9172 17.4948L30.2139 28.61L30.2053 28.6357C29.8556 29.7208 29.4817 30.798 29.0839 31.8665C28.7842 32.6301 28.4846 33.2704 28.0857 33.6848C27.6862 34.1006 27.2069 34.4315 26.6764 34.6575C26.146 34.8835 25.5753 35 24.9987 35C24.4221 35 23.8514 34.8835 23.321 34.6575C22.7905 34.4315 22.3112 34.1006 21.9117 33.6848C21.5145 33.2687 21.2132 32.6301 20.9136 31.8665C20.6054 31.0772 20.251 30.0122 19.7921 28.6357L19.7836 28.61C19.5867 28.0193 19.5165 27.8173 19.424 27.6444C19.1833 27.1885 18.8111 26.8157 18.3556 26.5743C18.1844 26.4835 17.9807 26.4133 17.39 26.2147L17.3643 26.2079C16.2794 25.8575 15.2022 25.4836 14.1335 25.0864C13.3699 24.7868 12.7296 24.4872 12.3152 24.0883C11.8994 23.6888 11.5685 23.2095 11.3425 22.679C11.1165 22.1486 11 21.5779 11 21.0013C11 20.4247 11.1165 19.854 11.3425 19.3236C11.5685 18.7931 11.8994 18.3138 12.3152 17.9143C12.7313 17.5154 13.3699 17.2158 14.1335 16.9161C14.9228 16.608 15.9878 16.2536 17.3643 15.7947L17.39 15.7861L28.5034 12.0828L28.5736 12.0588C29.9314 11.6068 31.0425 11.237 31.9072 11.0829"
              fill="white"/>
    </g>
    <defs>
        <clipPath id="clip0_108_423">
            <rect width="24" height="24" fill="white"
                  transform="translate(11 11)"/>
        </clipPath>
    </defs>
</svg>
