<svg width="24" height="24" viewBox="0 0 24 24" fill="none" xmlns="http://www.w3.org/2000/svg">
<path fill-rule="evenodd" clip-rule="evenodd" d="M9.2 4.14174C9.2 2.95889 10.1589 2 11.3417 2H12.6583C13.8411 2 14.8 2.95889 14.8 4.14174C14.8 4.1678 14.8078 4.20275 14.8402 4.24612C14.8747 4.29237 14.9323 4.33969 15.0083 4.3697C15.0957 4.40418 15.1824 4.44012 15.2683 4.47748C15.3432 4.51005 15.4172 4.51732 15.4743 4.50907C15.5278 4.50132 15.5581 4.48211 15.5765 4.46363C16.413 3.62714 17.7693 3.62714 18.6057 4.46363L19.5363 5.39423C20.3728 6.23071 20.3728 7.58693 19.5363 8.42342C19.5179 8.4419 19.4986 8.47213 19.4909 8.52564C19.4826 8.5827 19.4899 8.65679 19.5225 8.73166C19.5599 8.81758 19.5958 8.90426 19.6303 8.99167C19.6603 9.06772 19.7076 9.12531 19.7539 9.15984C19.7972 9.19223 19.8322 9.2 19.8583 9.2C21.0411 9.2 22 10.1589 22 11.3417V12.6583C22 13.8411 21.0411 14.8 19.8583 14.8C19.8322 14.8 19.7972 14.8078 19.7539 14.8402C19.7076 14.8747 19.6603 14.9323 19.6303 15.0083C19.5958 15.0957 19.5599 15.1824 19.5225 15.2683C19.4899 15.3432 19.4827 15.4173 19.4909 15.4743C19.4987 15.5278 19.5179 15.5581 19.5364 15.5766C20.3729 16.4131 20.3729 17.7693 19.5364 18.6058L18.6058 19.5364C17.7693 20.3729 16.4131 20.3729 15.5766 19.5364C15.5581 19.5179 15.5279 19.4987 15.4743 19.4909C15.4173 19.4827 15.3432 19.4899 15.2683 19.5225C15.1824 19.5599 15.0957 19.5958 15.0083 19.6303C14.9323 19.6603 14.8747 19.7076 14.8402 19.7539C14.8078 19.7972 14.8 19.8322 14.8 19.8583C14.8 21.0411 13.8411 22 12.6583 22H11.3417C10.1589 22 9.2 21.0411 9.2 19.8583C9.2 19.8322 9.19223 19.7972 9.15984 19.7539C9.12531 19.7076 9.06772 19.6603 8.99167 19.6303C8.90427 19.5958 8.8176 19.5599 8.7317 19.5225C8.65682 19.4899 8.58273 19.4827 8.52567 19.4909C8.47215 19.4987 8.44192 19.5179 8.42344 19.5364C7.58694 20.3729 6.23071 20.3729 5.39421 19.5364L4.46364 18.6058C3.62714 17.7693 3.62714 16.4131 4.46364 15.5766C4.48212 15.5581 4.50133 15.5278 4.50908 15.4743C4.51733 15.4173 4.51006 15.3432 4.47749 15.2683C4.44012 15.1824 4.40418 15.0957 4.3697 15.0083C4.33969 14.9323 4.29237 14.8747 4.24612 14.8402C4.20275 14.8078 4.1678 14.8 4.14174 14.8C2.95889 14.8 2 13.8411 2 12.6583V11.3417C2 10.1589 2.95889 9.2 4.14174 9.2C4.1678 9.2 4.20275 9.19223 4.24612 9.15984C4.29237 9.12531 4.33969 9.06772 4.3697 8.99167C4.40418 8.90426 4.44012 8.81759 4.47749 8.73169C4.51006 8.65682 4.51734 8.58273 4.50908 8.52566C4.50134 8.47214 4.48213 8.44191 4.46365 8.42343C3.62715 7.58694 3.62715 6.23071 4.46365 5.39421L5.39422 4.46364C6.23072 3.62714 7.58695 3.62714 8.42345 4.46364C8.44193 4.48212 8.47216 4.50133 8.52568 4.50907C8.58274 4.51733 8.65683 4.51005 8.73171 4.47748C8.81761 4.44012 8.90427 4.40418 8.99167 4.3697C9.06772 4.33969 9.12531 4.29237 9.15984 4.24612C9.19223 4.20275 9.2 4.1678 9.2 4.14174ZM11.3417 4C11.2635 4 11.2 4.06346 11.2 4.14174C11.2 5.14191 10.5242 5.91508 9.72569 6.23013C9.65973 6.25615 9.59433 6.28328 9.52949 6.31148C8.74171 6.65416 7.71665 6.58527 7.00923 5.87785C6.95378 5.8224 6.86389 5.8224 6.80844 5.87785L5.87786 6.80843C5.82241 6.86387 5.82241 6.95377 5.87786 7.00922C6.58528 7.71664 6.65417 8.74169 6.31149 9.52948C6.28328 9.59432 6.25615 9.65973 6.23013 9.72569C5.91508 10.5242 5.14191 11.2 4.14174 11.2C4.06346 11.2 4 11.2635 4 11.3417V12.6583C4 12.7365 4.06346 12.8 4.14174 12.8C5.14191 12.8 5.91508 13.4758 6.23013 14.2743C6.25615 14.3403 6.28328 14.4057 6.31148 14.4705C6.65417 15.2583 6.58527 16.2834 5.87785 16.9908C5.8224 17.0462 5.8224 17.1361 5.87785 17.1916L6.80843 18.1221C6.86388 18.1776 6.95378 18.1776 7.00922 18.1221C7.71664 17.4147 8.7417 17.3458 9.52948 17.6885C9.59432 17.7167 9.65973 17.7438 9.72569 17.7699C10.5242 18.0849 11.2 18.8581 11.2 19.8583C11.2 19.9365 11.2635 20 11.3417 20H12.6583C12.7365 20 12.8 19.9365 12.8 19.8583C12.8 18.8581 13.4758 18.0849 14.2743 17.7699C14.3403 17.7438 14.4057 17.7167 14.4705 17.6885C15.2583 17.3458 16.2834 17.4147 16.9908 18.1221C17.0462 18.1776 17.1361 18.1776 17.1916 18.1221L18.1221 17.1916C18.1776 17.1361 18.1776 17.0462 18.1221 16.9908C17.4147 16.2834 17.3458 15.2583 17.6885 14.4705C17.7167 14.4057 17.7438 14.3403 17.7699 14.2743C18.0849 13.4758 18.8581 12.8 19.8583 12.8C19.9365 12.8 20 12.7365 20 12.6583V11.3417C20 11.2635 19.9365 11.2 19.8583 11.2C18.8581 11.2 18.0849 10.5242 17.7699 9.72569C17.7438 9.65972 17.7167 9.5943 17.6885 9.52946C17.3458 8.74167 17.4147 7.71662 18.1221 7.00921C18.1776 6.95377 18.1776 6.86388 18.1221 6.80844L17.1915 5.87785C17.1361 5.8224 17.0462 5.8224 16.9907 5.87785C16.2833 6.58526 15.2583 6.65416 14.4705 6.31148C14.4057 6.28327 14.3403 6.25615 14.2743 6.23013C13.4758 5.91508 12.8 5.14191 12.8 4.14174C12.8 4.06346 12.7365 4 12.6583 4H11.3417Z" fill="#EEEEEE"/>
<path fill-rule="evenodd" clip-rule="evenodd" d="M12 10C10.8954 10 10 10.8954 10 12C10 13.1046 10.8954 14 12 14C13.1046 14 14 13.1046 14 12C14 10.8954 13.1046 10 12 10ZM8 12C8 9.79086 9.79086 8 12 8C14.2091 8 16 9.79086 16 12C16 14.2091 14.2091 16 12 16C9.79086 16 8 14.2091 8 12Z" fill="#EEEEEE"/>
</svg>
