<svg width="23" height="23" viewBox="0 0 23 23" fill="none" xmlns="http://www.w3.org/2000/svg">
<path fill-rule="evenodd" clip-rule="evenodd" d="M13.2008 15.2337C12.157 15.9033 10.9155 16.2917 9.58333 16.2917C5.87842 16.2917 2.875 13.2882 2.875 9.58333C2.875 5.87842 5.87842 2.875 9.58333 2.875C13.2882 2.875 16.2917 5.87842 16.2917 9.58333C16.2917 10.9155 15.9033 12.157 15.2337 13.2008L19.704 17.671C20.2653 18.2324 20.2653 19.1426 19.704 19.704C19.1426 20.2653 18.2324 20.2653 17.671 19.704L13.2008 15.2337ZM14.375 9.58333C14.375 12.2297 12.2297 14.375 9.58333 14.375C6.93697 14.375 4.79167 12.2297 4.79167 9.58333C4.79167 6.93697 6.93697 4.79167 9.58333 4.79167C12.2297 4.79167 14.375 6.93697 14.375 9.58333Z" fill="#EEEEEE"/>
</svg>
